<?xml version="1.0" encoding="utf-8"?>
<!-- Generator: Adobe Illustrator 27.9.1, SVG Export Plug-In . SVG Version: 6.00 Build 0)  -->
<svg version="1.1" id="レイヤー_1" xmlns="http://www.w3.org/2000/svg" xmlns:xlink="http://www.w3.org/1999/xlink" x="0px"
	 y="0px" viewBox="0 0 61.2 61.2" style="enable-background:new 0 0 61.2 61.2;" xml:space="preserve">
<style type="text/css">
	.st0{clip-path:url(#SVGID_00000121248171705351081500000012941970680485828265_);}
	.st1{clip-path:url(#SVGID_00000112591293562565616230000002206662051398494378_);}
</style>
<g id="a">
</g>
<g id="b">
	<g id="c">
		<g>
			<defs>
				<path id="SVGID_1_" d="M30.6,5.5c8.2,0,9.1,0,12.4,0.2c3,0.1,4.6,0.6,5.7,1C50.1,7.3,51.1,8,52.2,9s1.7,2.1,2.3,3.5
					c0.4,1.1,0.9,2.7,1,5.7c0.2,3.2,0.2,4.2,0.2,12.4s0,9.1-0.2,12.4c-0.1,3-0.6,4.6-1,5.7c-0.6,1.4-1.2,2.5-2.3,3.5
					s-2.1,1.7-3.5,2.3c-1.1,0.4-2.7,0.9-5.7,1c-3.2,0.2-4.2,0.2-12.4,0.2s-9.1,0-12.4-0.2c-3-0.1-4.6-0.6-5.7-1
					c-1.4-0.6-2.4-1.2-3.5-2.3s-1.7-2.1-2.3-3.5c-0.4-1.1-0.9-2.7-1.1-5.7c-0.2-3.2-0.2-4.2-0.2-12.4s0-9.1,0.2-12.4
					c0.1-3,0.6-4.6,1.1-5.7C7.3,11.1,8,10.1,9,9s2.1-1.7,3.5-2.3c1.1-0.4,2.7-0.9,5.7-1.1C21.5,5.5,22.4,5.5,30.6,5.5 M30.6,0
					C22.3,0,21.3,0,18,0.2c-3.3,0.2-5.5,0.7-7.4,1.4c-2,0.8-3.7,1.8-5.4,3.5s-2.8,3.4-3.5,5.4c-0.8,1.9-1.3,4.2-1.4,7.4
					S0,22.3,0,30.6s0,9.3,0.2,12.6c0.2,3.3,0.7,5.5,1.4,7.4c0.8,2,1.8,3.7,3.5,5.4s3.4,2.8,5.4,3.5c1.9,0.8,4.2,1.3,7.4,1.4
					c3.3,0.2,4.3,0.2,12.6,0.2s9.4,0,12.6-0.2c3.3-0.2,5.5-0.7,7.4-1.4c2-0.8,3.7-1.8,5.4-3.5c1.7-1.7,2.8-3.4,3.5-5.4
					c0.8-2,1.3-4.2,1.4-7.4c0.2-3.3,0.2-4.3,0.2-12.6s0-9.4-0.2-12.6c-0.2-3.3-0.7-5.5-1.4-7.4c-0.8-2-1.8-3.7-3.5-5.4
					c-1.7-1.7-3.4-2.8-5.4-3.5c-2-0.8-4.2-1.3-7.4-1.4C40,0,38.9,0,30.6,0C30.6,0,30.6,0,30.6,0z M30.6,14.9
					c-8.7,0-15.7,7-15.7,15.7s7,15.7,15.7,15.7s15.7-7,15.7-15.7S39.3,14.9,30.6,14.9z M30.6,40.8c-5.6,0-10.2-4.6-10.2-10.2
					S25,20.4,30.6,20.4S40.8,25,40.8,30.6S36.2,40.8,30.6,40.8z M46.9,10.6c-2,0-3.7,1.6-3.7,3.7s1.6,3.7,3.7,3.7s3.7-1.6,3.7-3.7
					S49,10.6,46.9,10.6z"/>
			</defs>
			<use xlink:href="#SVGID_1_"  style="overflow:visible;"/>
			<clipPath id="SVGID_00000036951728788189508890000010102714101576164242_">
				<use xlink:href="#SVGID_1_"  style="overflow:visible;"/>
			</clipPath>
			<g style="clip-path:url(#SVGID_00000036951728788189508890000010102714101576164242_);">
				<g id="e">
					<g>
						<defs>
							<polygon id="SVGID_00000134944279097528112940000004068792338865920169_" points="-14.2,-14.1 -14.1,-14.1 -14.2,-14.1 
															"/>
						</defs>
						<defs>
							<polygon id="SVGID_00000085944645359622923070000009060446791043484075_" points="-14.3,-14.2 -14.3,-14.2 -14.3,-14.3 
															"/>
						</defs>
						<use xlink:href="#SVGID_00000134944279097528112940000004068792338865920169_"  style="overflow:visible;"/>
						<use xlink:href="#SVGID_00000085944645359622923070000009060446791043484075_"  style="overflow:visible;"/>
						<clipPath id="SVGID_00000182500040064657524280000003439021832097379738_">
							<use xlink:href="#SVGID_00000134944279097528112940000004068792338865920169_"  style="overflow:visible;"/>
						</clipPath>
						
							<clipPath id="SVGID_00000039842172747505052140000003346420608249257345_" style="clip-path:url(#SVGID_00000182500040064657524280000003439021832097379738_);">
							<use xlink:href="#SVGID_00000085944645359622923070000009060446791043484075_"  style="overflow:visible;"/>
						</clipPath>
						<g style="clip-path:url(#SVGID_00000039842172747505052140000003346420608249257345_);enable-background:new    ;">
							
								<image style="overflow:visible;" width="1501" height="1501" id="f" xlink:href="8FAC17A4.png"  transform="matrix(6.000000e-02 0 0 6.000000e-02 -59.26 -59.21)">
							</image>
						</g>
					</g>
				</g>
			</g>
		</g>
	</g>
</g>
</svg>
